<svg width="28" height="14" viewBox="0 0 28 14" fill="none" xmlns="http://www.w3.org/2000/svg">
<g id="Battery">
<path id="Border" opacity="0.35" fill-rule="evenodd" clip-rule="evenodd" d="M4.36861 1.4541C3.26354 1.4541 2.82657 1.53809 2.37553 1.77819C1.99474 1.98089 1.69917 2.27509 1.49553 2.65411C1.25431 3.10305 1.16992 3.538 1.16992 4.63793V9.543C1.16992 10.6429 1.25431 11.0779 1.49553 11.5268C1.69917 11.9058 1.99474 12.2 2.37553 12.4027C2.82657 12.6428 3.26354 12.7268 4.36861 12.7268H20.9872C22.0923 12.7268 22.5293 12.6428 22.9803 12.4027C23.3611 12.2 23.6567 11.9058 23.8603 11.5268C24.1015 11.0779 24.1859 10.6429 24.1859 9.543V4.63793C24.1859 3.538 24.1015 3.10305 23.8603 2.65411C23.6567 2.27509 23.3611 1.98089 22.9803 1.77819C22.5293 1.53809 22.0923 1.4541 20.9872 1.4541H4.36861Z" stroke="white" stroke-width="1.09246"/>
<path id="Cap" opacity="0.4" d="M25.83 4.9082V9.27184C26.7119 8.90227 27.2855 8.04253 27.2855 7.09002C27.2855 6.13751 26.7119 5.27778 25.83 4.9082Z" fill="white"/>
<path id="Capacity" d="M4.68584 3.08984H20.6671C21.3185 3.08984 21.5547 3.15735 21.7929 3.28412C22.031 3.41089 22.2179 3.59692 22.3453 3.83396C22.4726 4.07099 22.5405 4.30611 22.5405 4.95449V9.2252C22.5405 9.87358 22.4726 10.1087 22.3453 10.3457C22.2179 10.5828 22.031 10.7688 21.7929 10.8956C21.5547 11.0223 21.3185 11.0898 20.6671 11.0898H4.68584C4.03444 11.0898 3.79823 11.0223 3.56008 10.8956C3.32194 10.7688 3.13504 10.5828 3.00768 10.3457C2.88032 10.1087 2.8125 9.87358 2.8125 9.2252V4.95449C2.8125 4.30611 2.88032 4.07099 3.00768 3.83396C3.13504 3.59692 3.32194 3.41089 3.56008 3.28412C3.79823 3.15735 4.03444 3.08984 4.68584 3.08984Z" fill="white"/>
</g>
</svg>
