<svg width="19" height="12" viewBox="0 0 19 12" fill="none" xmlns="http://www.w3.org/2000/svg">
<path id="Cellular-Connection" d="M1.32061 7.54519H2.41661C3.02191 7.54519 3.51261 8.03361 3.51261 8.6361V10.8179C3.51261 11.4204 3.02191 11.9088 2.41661 11.9088H1.32061C0.715305 11.9088 0.224609 11.4204 0.224609 10.8179V8.6361C0.224609 8.03361 0.715305 7.54519 1.32061 7.54519ZM6.43526 5.36337H7.53126C8.13656 5.36337 8.62726 5.85179 8.62726 6.45428V10.8179C8.62726 11.4204 8.13656 11.9088 7.53126 11.9088H6.43526C5.82996 11.9088 5.33926 11.4204 5.33926 10.8179V6.45428C5.33926 5.85179 5.82996 5.36337 6.43526 5.36337ZM11.5499 2.81791H12.6459C13.2513 2.81791 13.7419 3.30633 13.7419 3.90882V10.8179C13.7419 11.4204 13.2513 11.9088 12.6459 11.9088H11.5499C10.9446 11.9088 10.4539 11.4204 10.4539 10.8179V3.90882C10.4539 3.30633 10.9446 2.81791 11.5499 2.81791ZM16.6646 0.272461H17.7606C18.3659 0.272461 18.8566 0.760878 18.8566 1.36337V10.8179C18.8566 11.4204 18.3659 11.9088 17.7606 11.9088H16.6646C16.0593 11.9088 15.5686 11.4204 15.5686 10.8179V1.36337C15.5686 0.760878 16.0593 0.272461 16.6646 0.272461Z" fill="white"/>
</svg>
