<svg width="22" height="21" viewBox="0 0 22 21" fill="none" xmlns="http://www.w3.org/2000/svg">
<g id="Group 174">
<path id="Vector" d="M1.91914 8.84029L2.51667 8.89461L2.51668 8.89458L1.91914 8.84029ZM2.64066 7.53046L2.2804 7.05065C2.27403 7.05543 2.26776 7.06033 2.26159 7.06536L2.64066 7.53046ZM19.3648 7.53046L19.7439 7.06536C19.7275 7.05203 19.7105 7.03957 19.6928 7.02804L19.3648 7.53046ZM20.0863 8.84029L19.4888 8.89458L19.4888 8.89461L20.0863 8.84029ZM20.9999 20.3565V20.9565H21.6473L21.5982 20.311L20.9999 20.3565ZM1.00012 20.3565L0.40188 20.3106L0.352328 20.9565H1.00012V20.3565ZM17.9242 6.28917L17.338 6.16093L17.0816 7.33321L17.6677 7.46144L17.9242 6.28917ZM4.33165 7.46277L4.91911 7.34074L4.67505 6.16582L4.08759 6.28785L4.33165 7.46277ZM2.51668 8.89458C2.54648 8.56662 2.7164 8.24276 3.01972 7.99555L2.26159 7.06536C1.72817 7.50011 1.38288 8.11156 1.3216 8.78599L2.51668 8.89458ZM18.9857 7.99555C19.2891 8.24276 19.459 8.56662 19.4888 8.89458L20.6839 8.78599C20.6226 8.11156 20.2773 7.50011 19.7439 7.06536L18.9857 7.99555ZM19.6928 7.02804C19.06 6.61496 18.6541 6.44886 17.9242 6.28917L17.6677 7.46144C18.2594 7.59089 18.5293 7.70159 19.0368 8.03287L19.6928 7.02804ZM3.00092 8.01026C3.20479 7.85718 3.35964 7.76295 3.53875 7.68715C3.72432 7.60861 3.95866 7.54024 4.33165 7.46277L4.08759 6.28785C3.68204 6.37209 3.36084 6.45939 3.07104 6.58205C2.77478 6.70743 2.53441 6.85992 2.2804 7.05065L3.00092 8.01026ZM19.4888 8.89461C19.6021 10.1406 19.8301 13.0152 20.0302 15.5831C20.1302 16.866 20.223 18.0707 20.2909 18.9548C20.3248 19.3968 20.3525 19.7587 20.3717 20.01C20.3813 20.1356 20.3888 20.2337 20.3939 20.3003C20.3964 20.3336 20.3983 20.359 20.3996 20.3762C20.4003 20.3847 20.4008 20.3912 20.4011 20.3955C20.4013 20.3977 20.4014 20.3993 20.4015 20.4004C20.4015 20.401 20.4016 20.4014 20.4016 20.4016C20.4016 20.4018 20.4016 20.4019 20.4016 20.4019C20.4016 20.402 20.4016 20.4021 20.9999 20.3565C21.5982 20.311 21.5981 20.3109 21.5981 20.3109C21.5981 20.3108 21.5981 20.3107 21.5981 20.3106C21.5981 20.3103 21.5981 20.3099 21.598 20.3093C21.5979 20.3082 21.5978 20.3066 21.5977 20.3044C21.5973 20.3001 21.5968 20.2936 21.5962 20.285C21.5949 20.2679 21.5929 20.2424 21.5904 20.209C21.5853 20.1424 21.5778 20.0443 21.5682 19.9186C21.549 19.6671 21.5213 19.3051 21.4874 18.863C21.4195 17.9786 21.3266 16.7734 21.2266 15.4899C21.0267 12.925 20.798 10.0415 20.6839 8.78596L19.4888 8.89461ZM20.9999 19.7565H1.00012V20.9565H20.9999V19.7565ZM1.00012 20.3565C1.59836 20.4024 1.59837 20.4024 1.59837 20.4023C1.59838 20.4022 1.59838 20.4021 1.5984 20.402C1.59842 20.4017 1.59845 20.4013 1.59849 20.4008C1.59857 20.3997 1.5987 20.3981 1.59886 20.3959C1.5992 20.3916 1.59969 20.3851 1.60035 20.3765C1.60167 20.3594 1.60362 20.3339 1.60618 20.3006C1.6113 20.234 1.61884 20.136 1.62851 20.0103C1.64786 19.759 1.67576 19.3972 1.70995 18.9552C1.77833 18.0711 1.87187 16.8663 1.97251 15.5834C2.17394 13.0156 2.40337 10.1408 2.51667 8.89461L1.3216 8.78596C1.20747 10.0413 0.977394 12.9246 0.776182 15.4896C0.675497 16.773 0.581924 17.9783 0.513523 18.8626C0.479322 19.3048 0.451413 19.6668 0.432053 19.9182C0.422374 20.0439 0.414831 20.142 0.409708 20.2087C0.407147 20.242 0.40519 20.2675 0.403874 20.2846C0.403215 20.2932 0.402717 20.2997 0.402384 20.3041C0.402217 20.3062 0.402091 20.3079 0.402007 20.309C0.401965 20.3095 0.401933 20.3099 0.401912 20.3102C0.401901 20.3103 0.401893 20.3104 0.401888 20.3105C0.401883 20.3106 0.40188 20.3106 1.00012 20.3565Z" fill="#9E9D9D"/>
<path id="Vector_2" d="M15.5321 10.0001V5.00008C15.5321 3.93922 15.055 2.92181 14.2057 2.17166C13.3564 1.42152 12.2045 1.00009 11.0034 1.00009C9.80225 1.00009 8.65034 1.42152 7.80103 2.17166C6.95172 2.92181 6.47458 3.93922 6.47458 5.00008V10.0001" stroke="#9E9D9D" stroke-width="1.2" stroke-linecap="square" stroke-linejoin="round"/>
<line id="Line 62" x1="9.10003" y1="6.44892" x2="12.9" y2="6.44892" stroke="#9E9D9D" stroke-width="1.2" stroke-linecap="square"/>
</g>
</svg>
