<svg width="20" height="20" viewBox="0 0 20 20" fill="none" xmlns="http://www.w3.org/2000/svg">
<g id="Share">
<path id="Union" fill-rule="evenodd" clip-rule="evenodd" d="M17.5 4.16667C17.5 5.54738 16.3807 6.66667 15 6.66667C14.1925 6.66667 13.4743 6.28378 13.0173 5.68963L7.33315 9.10011C7.44091 9.37934 7.5 9.68277 7.5 10C7.5 10.3172 7.44091 10.6207 7.33315 10.8999L13.0173 14.3104C13.4743 13.7162 14.1925 13.3333 15 13.3333C16.3807 13.3333 17.5 14.4526 17.5 15.8333C17.5 17.214 16.3807 18.3333 15 18.3333C13.6193 18.3333 12.5 17.214 12.5 15.8333C12.5 15.711 12.5088 15.5908 12.5257 15.4732L6.60229 11.9191C6.16841 12.2817 5.60969 12.5 5 12.5C3.61929 12.5 2.5 11.3807 2.5 10C2.5 8.61929 3.61929 7.5 5 7.5C5.60969 7.5 6.16841 7.71825 6.60229 8.08089L12.5257 4.52681C12.5088 4.40921 12.5 4.28897 12.5 4.16667C12.5 2.78595 13.6193 1.66667 15 1.66667C16.3807 1.66667 17.5 2.78595 17.5 4.16667Z" fill="#592EBF"/>
</g>
</svg>
