<svg width="22" height="22" viewBox="0 0 22 22" fill="none" xmlns="http://www.w3.org/2000/svg">
<g id="Group 175">
<path id="Vector" d="M1.91902 8.83998L2.66594 8.90789L2.66594 8.90785L1.91902 8.83998ZM2.64053 7.53015L2.19021 6.93039C2.18225 6.93637 2.17442 6.9425 2.16671 6.94878L2.64053 7.53015ZM19.3647 7.53015L19.8385 6.94878C19.8181 6.93212 19.7968 6.91655 19.7747 6.90213L19.3647 7.53015ZM20.0862 8.83998L19.3393 8.90785L19.3393 8.90789L20.0862 8.83998ZM20.9998 20.3562V21.1062H21.809L21.7476 20.2993L20.9998 20.3562ZM1 20.3562L0.252197 20.2988L0.190258 21.1062H1V20.3562ZM17.9561 6.14233L17.2234 5.98204L16.9029 7.44738L17.6355 7.60767L17.9561 6.14233ZM4.36203 7.60932L5.09636 7.45679L4.79129 5.98814L4.05696 6.14068L4.36203 7.60932ZM2.66594 8.90785C2.6918 8.6232 2.83981 8.33529 3.11436 8.11152L2.16671 6.94878C1.60452 7.40698 1.23731 8.05438 1.17209 8.77211L2.66594 8.90785ZM18.8908 8.11152C19.1654 8.33529 19.3134 8.6232 19.3393 8.90785L20.8331 8.77211C20.7679 8.05438 20.4007 7.40698 19.8385 6.94878L18.8908 8.11152ZM19.7747 6.90213C19.1262 6.47882 18.7033 6.3058 17.9561 6.14233L17.6355 7.60767C18.2099 7.73334 18.4629 7.83711 18.9547 8.15817L19.7747 6.90213ZM3.09086 8.12991C3.28847 7.98153 3.43262 7.89459 3.59709 7.82498C3.76963 7.75195 3.99312 7.68596 4.36203 7.60932L4.05696 6.14068C3.64734 6.22576 3.31529 6.31544 3.01245 6.4436C2.70155 6.57519 2.45049 6.73496 2.19021 6.93039L3.09086 8.12991ZM19.3393 8.90789C19.4525 10.1527 19.6804 13.0262 19.8805 15.5944C19.9805 16.8773 20.0733 18.082 20.1412 18.966C20.1751 19.408 20.2028 19.7698 20.222 20.0211C20.2316 20.1468 20.2391 20.2448 20.2442 20.3114C20.2467 20.3447 20.2486 20.3701 20.25 20.3872C20.2506 20.3958 20.2511 20.4023 20.2514 20.4066C20.2516 20.4088 20.2517 20.4104 20.2518 20.4115C20.2518 20.412 20.2519 20.4125 20.2519 20.4127C20.2519 20.4129 20.2519 20.413 20.2519 20.413C20.2519 20.4131 20.2519 20.4131 20.9998 20.3562C21.7476 20.2993 21.7476 20.2993 21.7476 20.2992C21.7476 20.2991 21.7476 20.299 21.7476 20.2989C21.7475 20.2986 21.7475 20.2982 21.7475 20.2976C21.7474 20.2965 21.7473 20.2949 21.7471 20.2927C21.7468 20.2884 21.7463 20.2819 21.7456 20.2733C21.7443 20.2562 21.7424 20.2307 21.7398 20.1973C21.7347 20.1307 21.7273 20.0326 21.7177 19.9068C21.6984 19.6554 21.6707 19.2934 21.6368 18.8512C21.5689 17.9668 21.476 16.7615 21.376 15.4779C21.1762 12.9134 20.9474 10.0288 20.8331 8.77207L19.3393 8.90789ZM20.9998 19.6062H1V21.1062H20.9998V19.6062ZM1 20.3562C1.7478 20.4136 1.74781 20.4135 1.74781 20.4135C1.74782 20.4134 1.74782 20.4133 1.74783 20.4132C1.74785 20.4129 1.74789 20.4125 1.74793 20.4119C1.74801 20.4109 1.74814 20.4092 1.7483 20.4071C1.74864 20.4027 1.74913 20.3962 1.74979 20.3877C1.7511 20.3706 1.75306 20.3451 1.75562 20.3118C1.76074 20.2452 1.76827 20.1472 1.77795 20.0215C1.7973 19.7702 1.82519 19.4084 1.85938 18.9664C1.92776 18.0824 2.02129 16.8777 2.12192 15.5948C2.32339 13.0267 2.55274 10.153 2.66594 8.90789L1.1721 8.77207C1.05786 10.0285 0.827703 12.913 0.626519 15.4775C0.525829 16.7611 0.432251 17.9664 0.363847 18.8507C0.329645 19.2929 0.301735 19.6549 0.282374 19.9064C0.272694 20.0321 0.265151 20.1302 0.260027 20.1969C0.257465 20.2302 0.255509 20.2557 0.254192 20.2729C0.253534 20.2814 0.253035 20.2879 0.252701 20.2923C0.252534 20.2944 0.252409 20.2961 0.252324 20.2972C0.252282 20.2977 0.252251 20.2981 0.252229 20.2984C0.252219 20.2986 0.252211 20.2987 0.252206 20.2987C0.2522 20.2988 0.252197 20.2988 1 20.3562Z" fill="#B4B4B4"/>
<path id="Vector_2" d="M15.5319 9.99998V4.99999C15.5319 3.93913 15.0548 2.92171 14.2055 2.17157C13.3562 1.42143 12.2042 1 11.0031 1C9.80204 1 8.65012 1.42143 7.80081 2.17157C6.9515 2.92171 6.47437 3.93913 6.47437 4.99999V9.99998" stroke="#B4B4B4" stroke-width="1.5" stroke-linecap="square" stroke-linejoin="round"/>
<line id="Line 62" x1="9.25" y1="6.29883" x2="12.75" y2="6.29883" stroke="#B4B4B4" stroke-width="1.5" stroke-linecap="square"/>
</g>
</svg>
