<svg width="20" height="24" viewBox="0 0 20 24" fill="none" xmlns="http://www.w3.org/2000/svg">
<g id="User Profile_My Profile Icon">
<g id="for_you">
<mask id="path-1-outside-1_160_66" maskUnits="userSpaceOnUse" x="-6.10352e-05" y="-6.10352e-05" width="20" height="24" fill="black">
<rect fill="white" x="-6.10352e-05" y="-6.10352e-05" width="20" height="24"/>
<path d="M9.99994 12.4782C11.5207 12.4782 13.0741 12.3471 14.6603 12.0848C16.2465 11.8226 17.693 11.4595 18.9999 10.9956V21.326C17.8191 21.8218 16.4005 22.2248 14.7441 22.5348C13.0877 22.8449 11.5063 22.9999 9.99994 22.9999C8.49357 22.9999 6.91218 22.8449 5.25578 22.5348C3.5994 22.2248 2.18079 21.8218 0.999939 21.326V10.9956C2.30685 11.4595 3.7534 11.8226 5.33958 12.0848C6.92574 12.3471 8.47919 12.4782 9.99994 12.4782ZM17.7553 20.4173V12.6934C16.7659 12.9836 15.532 13.2275 14.0535 13.4252C12.5751 13.6228 11.2239 13.7217 9.99994 13.7217C8.776 13.7217 7.42481 13.6228 5.94636 13.4252C4.46791 13.2275 3.23399 12.9836 2.24462 12.6934V20.4173C3.18612 20.7904 4.40287 21.1068 5.89489 21.3667C7.38691 21.6265 8.75526 21.7565 9.99994 21.7565C11.2446 21.7565 12.613 21.6265 14.105 21.3667C15.597 21.1068 16.8138 20.7904 17.7553 20.4173ZM9.99994 0.999939C11.1058 0.999939 12.0525 1.3933 12.84 2.18003C13.6275 2.96678 14.0212 3.91255 14.0212 5.01734C14.0212 6.12211 13.6275 7.06787 12.84 7.85462C12.0525 8.64134 11.1058 9.03471 9.99994 9.03471C8.89408 9.03471 7.94741 8.64134 7.15992 7.85462C6.37241 7.06787 5.97866 6.12211 5.97866 5.01734C5.97866 3.91255 6.37241 2.96678 7.15992 2.18003C7.94741 1.3933 8.89408 0.999939 9.99994 0.999939ZM10.0008 7.79123C10.7646 7.79123 11.4181 7.51954 11.9615 6.97616C12.5049 6.43276 12.7765 5.77953 12.7765 5.01647C12.7765 4.25341 12.5046 3.60047 11.9607 3.05765C11.4167 2.51483 10.7629 2.24342 9.9991 2.24342C9.2353 2.24342 8.58173 2.51511 8.03839 3.05849C7.49502 3.60189 7.22334 4.25512 7.22334 5.01818C7.22334 5.78124 7.4953 6.43418 8.03923 6.977C8.58313 7.51982 9.23698 7.79123 10.0008 7.79123Z"/>
</mask>
<path d="M9.99994 12.4782C11.5207 12.4782 13.0741 12.3471 14.6603 12.0848C16.2465 11.8226 17.693 11.4595 18.9999 10.9956V21.326C17.8191 21.8218 16.4005 22.2248 14.7441 22.5348C13.0877 22.8449 11.5063 22.9999 9.99994 22.9999C8.49357 22.9999 6.91218 22.8449 5.25578 22.5348C3.5994 22.2248 2.18079 21.8218 0.999939 21.326V10.9956C2.30685 11.4595 3.7534 11.8226 5.33958 12.0848C6.92574 12.3471 8.47919 12.4782 9.99994 12.4782ZM17.7553 20.4173V12.6934C16.7659 12.9836 15.532 13.2275 14.0535 13.4252C12.5751 13.6228 11.2239 13.7217 9.99994 13.7217C8.776 13.7217 7.42481 13.6228 5.94636 13.4252C4.46791 13.2275 3.23399 12.9836 2.24462 12.6934V20.4173C3.18612 20.7904 4.40287 21.1068 5.89489 21.3667C7.38691 21.6265 8.75526 21.7565 9.99994 21.7565C11.2446 21.7565 12.613 21.6265 14.105 21.3667C15.597 21.1068 16.8138 20.7904 17.7553 20.4173ZM9.99994 0.999939C11.1058 0.999939 12.0525 1.3933 12.84 2.18003C13.6275 2.96678 14.0212 3.91255 14.0212 5.01734C14.0212 6.12211 13.6275 7.06787 12.84 7.85462C12.0525 8.64134 11.1058 9.03471 9.99994 9.03471C8.89408 9.03471 7.94741 8.64134 7.15992 7.85462C6.37241 7.06787 5.97866 6.12211 5.97866 5.01734C5.97866 3.91255 6.37241 2.96678 7.15992 2.18003C7.94741 1.3933 8.89408 0.999939 9.99994 0.999939ZM10.0008 7.79123C10.7646 7.79123 11.4181 7.51954 11.9615 6.97616C12.5049 6.43276 12.7765 5.77953 12.7765 5.01647C12.7765 4.25341 12.5046 3.60047 11.9607 3.05765C11.4167 2.51483 10.7629 2.24342 9.9991 2.24342C9.2353 2.24342 8.58173 2.51511 8.03839 3.05849C7.49502 3.60189 7.22334 4.25512 7.22334 5.01818C7.22334 5.78124 7.4953 6.43418 8.03923 6.977C8.58313 7.51982 9.23698 7.79123 10.0008 7.79123Z" fill="#B4B4B4"/>
<path d="M14.6603 12.0848L14.6424 11.9763L14.6603 12.0848ZM18.9999 10.9956H19.1099V10.8398L18.9631 10.8919L18.9999 10.9956ZM18.9999 21.326L19.0425 21.4275L19.1099 21.3991V21.326H18.9999ZM14.7441 22.5348L14.7643 22.643H14.7643L14.7441 22.5348ZM5.25578 22.5348L5.23554 22.643H5.23554L5.25578 22.5348ZM0.999939 21.326H0.889939V21.3991L0.957355 21.4275L0.999939 21.326ZM0.999939 10.9956L1.03674 10.8919L0.889939 10.8398V10.9956H0.999939ZM5.33958 12.0848L5.35752 11.9763H5.35752L5.33958 12.0848ZM17.7553 20.4173L17.7958 20.5196L17.8653 20.4921V20.4173H17.7553ZM17.7553 12.6934H17.8653V12.5465L17.7243 12.5879L17.7553 12.6934ZM14.0535 13.4252L14.0389 13.3161H14.0389L14.0535 13.4252ZM5.94636 13.4252L5.96094 13.3161H5.96094L5.94636 13.4252ZM2.24462 12.6934L2.27557 12.5879L2.13462 12.5465V12.6934H2.24462ZM2.24462 20.4173H2.13462V20.4921L2.2041 20.5196L2.24462 20.4173ZM5.89489 21.3667L5.87602 21.4751H5.87602L5.89489 21.3667ZM14.105 21.3667L14.1239 21.4751H14.1239L14.105 21.3667ZM11.9615 6.97616L12.0393 7.05394L11.9615 6.97616ZM11.9607 3.05765L11.8829 3.13551L11.8829 3.13551L11.9607 3.05765ZM8.03839 3.05849L7.9606 2.98071L8.03839 3.05849ZM8.03923 6.977L8.11693 6.89914L8.11693 6.89914L8.03923 6.977ZM9.99994 12.5882C11.527 12.5882 13.0865 12.4565 14.6782 12.1934L14.6424 11.9763C13.0618 12.2376 11.5143 12.3682 9.99994 12.3682V12.5882ZM14.6782 12.1934C16.2699 11.9302 17.7228 11.5657 19.0367 11.0992L18.9631 10.8919C17.6632 11.3534 16.2231 11.715 14.6424 11.9763L14.6782 12.1934ZM18.8899 10.9956V21.326H19.1099V10.9956H18.8899ZM18.9574 21.2246C17.7855 21.7166 16.3748 22.1177 14.7239 22.4267L14.7643 22.643C16.4261 22.3319 17.8526 21.927 19.0425 21.4275L18.9574 21.2246ZM14.7239 22.4267C13.0734 22.7357 11.4988 22.8899 9.99994 22.8899V23.1099C11.5138 23.1099 13.102 22.9541 14.7643 22.643L14.7239 22.4267ZM9.99994 22.8899C8.5011 22.8899 6.92652 22.7357 5.27602 22.4267L5.23554 22.643C6.89784 22.9541 8.48603 23.1099 9.99994 23.1099V22.8899ZM5.27602 22.4267C3.62505 22.1177 2.21434 21.7166 1.04252 21.2246L0.957355 21.4275C2.14724 21.927 3.57375 22.3319 5.23554 22.643L5.27602 22.4267ZM1.10994 21.326V10.9956H0.889939V21.326H1.10994ZM0.963141 11.0992C2.27706 11.5657 3.73003 11.9302 5.32163 12.1934L5.35752 11.9763C3.77677 11.715 2.33665 11.3534 1.03674 10.8919L0.963141 11.0992ZM5.32163 12.1934C6.91339 12.4565 8.47285 12.5882 9.99994 12.5882V12.3682C8.48553 12.3682 6.93808 12.2376 5.35752 11.9763L5.32163 12.1934ZM17.8653 20.4173V12.6934H17.6453V20.4173H17.8653ZM17.7243 12.5879C16.7421 12.8759 15.5141 13.1189 14.0389 13.3161L14.0681 13.5342C15.5499 13.3361 16.7897 13.0912 17.7862 12.799L17.7243 12.5879ZM14.0389 13.3161C12.5643 13.5133 11.2181 13.6117 9.99994 13.6117V13.8317C11.2297 13.8317 12.5858 13.7324 14.0681 13.5342L14.0389 13.3161ZM9.99994 13.6117C8.7818 13.6117 7.43556 13.5133 5.96094 13.3161L5.93178 13.5342C7.41406 13.7324 8.77021 13.8317 9.99994 13.8317V13.6117ZM5.96094 13.3161C4.48581 13.1189 3.2578 12.8759 2.27557 12.5879L2.21366 12.799C3.21019 13.0912 4.45001 13.3361 5.93178 13.5342L5.96094 13.3161ZM2.13462 12.6934V20.4173H2.35462V12.6934H2.13462ZM2.2041 20.5196C3.1551 20.8964 4.37985 21.2145 5.87602 21.4751L5.91377 21.2583C4.4259 20.9992 3.21713 20.6843 2.28514 20.3151L2.2041 20.5196ZM5.87602 21.4751C7.37298 21.7358 8.74775 21.8665 9.99994 21.8665V21.6465C8.76277 21.6465 7.40084 21.5173 5.91376 21.2583L5.87602 21.4751ZM9.99994 21.8665C11.2521 21.8665 12.6269 21.7358 14.1239 21.4751L14.0861 21.2583C12.599 21.5173 11.2371 21.6465 9.99994 21.6465V21.8665ZM14.1239 21.4751C15.62 21.2145 16.8448 20.8964 17.7958 20.5196L17.7147 20.3151C16.7827 20.6843 15.574 20.9992 14.0861 21.2583L14.1239 21.4751ZM9.99994 1.10994C11.0764 1.10994 11.9952 1.49158 12.7622 2.25785L12.9177 2.10221C12.1097 1.29503 11.1352 0.889939 9.99994 0.889939V1.10994ZM12.7622 2.25785C13.5292 3.02414 13.9112 3.94199 13.9112 5.01734H14.1312C14.1312 3.88311 13.7257 2.90942 12.9177 2.10221L12.7622 2.25785ZM13.9112 5.01734C13.9112 6.09267 13.5292 7.0105 12.7622 7.7768L12.9177 7.93244C13.7257 7.12523 14.1312 6.15155 14.1312 5.01734H13.9112ZM12.7622 7.7768C11.9952 8.54307 11.0764 8.92471 9.99994 8.92471V9.14471C11.1352 9.14471 12.1097 8.73962 12.9177 7.93244L12.7622 7.7768ZM9.99994 8.92471C8.92345 8.92471 8.00468 8.54307 7.23767 7.7768L7.08218 7.93244C7.89014 8.73962 8.86471 9.14471 9.99994 9.14471V8.92471ZM7.23767 7.7768C6.47063 7.0105 6.08866 6.09267 6.08866 5.01734H5.86866C5.86866 6.15155 6.27419 7.12523 7.08218 7.93244L7.23767 7.7768ZM6.08866 5.01734C6.08866 3.94199 6.47063 3.02414 7.23767 2.25785L7.08218 2.10221C6.27419 2.90942 5.86866 3.88311 5.86866 5.01734H6.08866ZM7.23767 2.25785C8.00468 1.49158 8.92345 1.10994 9.99994 1.10994V0.889939C8.86471 0.889939 7.89014 1.29503 7.08218 2.10221L7.23767 2.25785ZM10.0008 7.90123C10.794 7.90123 11.4754 7.61781 12.0393 7.05394L11.8837 6.89838C11.3609 7.42127 10.7352 7.68123 10.0008 7.68123V7.90123ZM12.0393 7.05394C12.6031 6.49008 12.8865 5.80893 12.8865 5.01647H12.6665C12.6665 5.75013 12.4066 6.37545 11.8837 6.89838L12.0393 7.05394ZM12.8865 5.01647C12.8865 4.22396 12.6028 3.54308 12.0384 2.97979L11.8829 3.13551C12.4064 3.65786 12.6665 4.28285 12.6665 5.01647H12.8865ZM12.0384 2.97979C11.474 2.41653 10.7922 2.13342 9.9991 2.13342V2.35342C10.7336 2.35342 11.3595 2.61313 11.8829 3.13551L12.0384 2.97979ZM9.9991 2.13342C9.20593 2.13342 8.52443 2.41684 7.9606 2.98071L8.11617 3.13627C8.63903 2.61338 9.26468 2.35342 9.9991 2.35342V2.13342ZM7.9606 2.98071C7.39677 3.54457 7.11334 4.22571 7.11334 5.01818H7.33334C7.33334 4.28452 7.59327 3.6592 8.11617 3.13627L7.9606 2.98071ZM7.11334 5.01818C7.11334 5.81068 7.39709 6.49157 7.96152 7.05486L8.11693 6.89914C7.59352 6.37679 7.33334 5.7518 7.33334 5.01818H7.11334ZM7.96152 7.05486C8.52591 7.61812 9.20765 7.90123 10.0008 7.90123V7.68123C9.26632 7.68123 8.64035 7.42152 8.11693 6.89914L7.96152 7.05486Z" fill="#B4B4B4" mask="url(#path-1-outside-1_160_66)"/>
</g>
</g>
</svg>
