<svg width="16" height="16" viewBox="0 0 16 16" fill="none" xmlns="http://www.w3.org/2000/svg">
<g id="Verified Badge">
<path id="Star 12" d="M7.18616 0.960578C7.6122 0.457717 8.3878 0.457717 8.81384 0.960578L9.45251 1.7144C9.71377 2.02276 10.1269 2.15699 10.5195 2.06108L11.4793 1.82662C12.1195 1.67022 12.747 2.12611 12.7961 2.78335L12.8697 3.76861C12.8998 4.17164 13.1551 4.52304 13.5291 4.67622L14.4434 5.05069C15.0533 5.30049 15.293 6.03812 14.9464 6.59871L14.4268 7.43906C14.2143 7.78282 14.2143 8.21718 14.4268 8.56094L14.9464 9.40129C15.293 9.96188 15.0533 10.6995 14.4434 10.9493L13.5291 11.3238C13.1551 11.477 12.8998 11.8284 12.8697 12.2314L12.7961 13.2166C12.747 13.8739 12.1195 14.3298 11.4793 14.1734L10.5195 13.9389C10.1269 13.843 9.71377 13.9772 9.45251 14.2856L8.81384 15.0394C8.3878 15.5423 7.6122 15.5423 7.18616 15.0394L6.54749 14.2856C6.28623 13.9772 5.87314 13.843 5.48052 13.9389L4.52074 14.1734C3.88049 14.3298 3.25302 13.8739 3.20392 13.2166L3.13031 12.2314C3.1002 11.8284 2.84489 11.477 2.47089 11.3238L1.5566 10.9493C0.946699 10.6995 0.707027 9.96188 1.05362 9.40129L1.57319 8.56094C1.78573 8.21718 1.78573 7.78282 1.57319 7.43906L1.05362 6.59871C0.707027 6.03812 0.946699 5.30049 1.5566 5.05069L2.47089 4.67622C2.84489 4.52304 3.1002 4.17164 3.13031 3.76861L3.20392 2.78335C3.25302 2.12611 3.88049 1.67022 4.52074 1.82662L5.48052 2.06108C5.87314 2.15699 6.28623 2.02276 6.54749 1.7144L7.18616 0.960578Z" fill="#24A4DE"/>
<path id="Vector 58" d="M5.33594 7.82212L7.2407 9.5999L10.6693 6.3999" stroke="white" stroke-width="1.28" stroke-linecap="round"/>
</g>
</svg>
