<svg width="18" height="13" viewBox="0 0 18 13" fill="none" xmlns="http://www.w3.org/2000/svg">
<path id="Wifi" d="M8.73907 3.39841C11.1774 3.39851 13.5224 4.33027 15.2896 6.0011C15.4227 6.13009 15.6353 6.12846 15.7664 5.99745L17.0384 4.72073C17.1048 4.65428 17.1418 4.56427 17.1413 4.47061C17.1407 4.37696 17.1026 4.28739 17.0355 4.22171C12.3973 -0.198904 5.08005 -0.198904 0.441872 4.22171C0.374684 4.28734 0.336572 4.37688 0.335945 4.47054C0.335333 4.56419 0.372281 4.65423 0.438595 4.72073L1.71096 5.99745C1.84194 6.12866 2.05483 6.13029 2.18782 6.0011C3.95518 4.33016 6.30052 3.3984 8.73907 3.39841ZM8.73907 7.55213C10.0788 7.55205 11.3706 8.04727 12.3637 8.94157C12.498 9.0685 12.7096 9.06574 12.8405 8.93537L14.1111 7.65865C14.178 7.59168 14.2151 7.50083 14.2142 7.40643C14.2132 7.31203 14.1742 7.22195 14.106 7.15635C11.0819 4.35881 6.39877 4.35881 3.37473 7.15635C3.30642 7.22195 3.26747 7.31207 3.26656 7.40651C3.26568 7.50094 3.30293 7.59178 3.36998 7.65865L4.64017 8.93537C4.77111 9.06574 4.98268 9.0685 5.117 8.94157C6.10939 8.04787 7.40026 7.55269 8.73907 7.55213ZM11.1808 10.5991C11.2487 10.5328 11.2861 10.4415 11.2842 10.3469C11.2823 10.2522 11.2411 10.1625 11.1705 10.099C9.76692 8.91836 7.71119 8.91836 6.30759 10.099C6.23692 10.1625 6.19571 10.2521 6.1937 10.3468C6.19168 10.4415 6.22904 10.5328 6.29695 10.5991L8.49514 12.8049C8.55957 12.8698 8.64742 12.9063 8.73907 12.9063C8.83072 12.9063 8.91854 12.8698 8.98297 12.8049L11.1808 10.5991Z" fill="white"/>
</svg>
