<svg width="22" height="18" viewBox="0 0 22 18" fill="none" xmlns="http://www.w3.org/2000/svg">
<g id="YouTube Icon">
<path id="Vector" d="M1 9.70699V8.29199C1 5.39699 1 3.94899 1.905 3.01799C2.811 2.08599 4.237 2.04599 7.088 1.96499C8.438 1.92699 9.818 1.89999 11 1.89999C12.181 1.89999 13.561 1.92699 14.912 1.96499C17.763 2.04599 19.189 2.08599 20.094 3.01799C21 3.94899 21 5.39799 21 8.29199V9.70699C21 12.603 21 14.05 20.095 14.982C19.189 15.913 17.764 15.954 14.912 16.034C13.562 16.073 12.182 16.1 11 16.1C9.69576 16.0961 8.39163 16.0741 7.088 16.034C4.237 15.954 2.811 15.914 1.905 14.982C1 14.05 1 12.602 1 9.70799V9.70699Z" stroke="#FF487F" stroke-width="1.93101"/>
<path id="Vector_2" d="M14.4643 8.89972L9.04028 11.9991V5.80031L14.4643 8.89972Z" fill="#FF487F"/>
</g>
</svg>
